<?xml version="1.0" encoding="utf-8"?>
<!-- Generator: Adobe Illustrator 16.0.4, SVG Export Plug-In . SVG Version: 6.00 Build 0)  -->
<!DOCTYPE svg PUBLIC "-//W3C//DTD SVG 1.1//EN" "http://www.w3.org/Graphics/SVG/1.1/DTD/svg11.dtd">
<svg version="1.1" id="Layer_1" xmlns="http://www.w3.org/2000/svg" xmlns:xlink="http://www.w3.org/1999/xlink" x="0px" y="0px"
	 width="350px" height="200px" viewBox="0 0 350 200" enable-background="new 0 0 350 200" xml:space="preserve">
<rect x="81.125" y="148.5" fill="none" width="209.998" height="51.5"/>
<text transform="matrix(1 0 0 1 81.125 175.2461)" font-family="'FiraSans-Light'" font-size="36">PeerLibrary</text>
<g>
	<polygon points="188.312,93.755 182.638,102.129 191.016,105.053 	"/>
	<polygon points="187.015,93.482 174.859,93.482 174.859,100.221 181.421,101.754 	"/>
	<polygon points="191.942,62.882 183.019,74.885 201.3,81.108 191.977,62.882 	"/>
	<polygon points="174.859,92.218 187.852,92.218 187.904,92.149 181.753,76.157 174.859,81.336 	"/>
	<polygon points="210.013,52.354 212.785,63.78 221.185,52.354 	"/>
	<polygon points="211.704,64.574 208.712,52.236 193.008,61.75 	"/>
	<polygon points="236.621,91.236 236.621,85.203 220.778,82.791 229.581,98.223 	"/>
	<polygon points="219.725,83.373 213.562,98.658 228.433,98.613 	"/>
	<polygon points="228.407,99.812 213.521,99.84 219.466,114.887 	"/>
	<polygon points="229.591,66.2 220.573,81.515 236.621,83.956 236.621,76.762 	"/>
	<polygon points="211.248,100.384 193.023,106.281 202.104,115.357 	"/>
	<polygon points="212.522,100.672 203.33,115.73 218.449,115.672 	"/>
	<polygon points="200.941,115.938 191.95,106.953 183.083,118.855 	"/>
	<polygon points="193.472,63.068 202.594,80.909 211.453,65.782 	"/>
	<polygon points="236.621,53.418 236.621,40.875 224.129,50.895 	"/>
	<path d="M215.054,40.227l-2.126-6.402c-4.078,0-8.23,0-12.047,0l-4.318,6.532L215.054,40.227z"/>
	<polygon points="229.757,64.168 236.621,57.111 236.621,54.676 223.567,52.037 	"/>
	<polygon points="190.406,62.882 174.859,62.882 174.859,67.46 181.957,74.27 	"/>
	<path d="M182.669,120.195l3.803,6.412c2.446,0,5.948,0,9.981,0l4.687-9.416L182.669,120.195z"/>
	<path d="M194.096,41.011l-11.532-6.966c-1.098,0.159-2.039,0.418-2.848,0.749l2.409,12.143L194.096,41.011z"/>
	<polygon points="228.468,65.735 213.703,65.934 219.732,80.593 	"/>
	<polygon points="209.979,99.507 189.584,93.774 192.322,105.219 	"/>
	<polygon points="188.881,91.263 201.224,82.361 183.069,76.188 	"/>
	<polygon points="213.643,64.702 228.576,64.5 222.526,52.614 	"/>
	<polygon points="218.711,82.59 203.641,82.772 212.538,97.902 	"/>
	<polygon points="202.375,83.052 189.369,92.432 211.559,98.67 	"/>
	<polygon points="203.654,81.538 218.713,81.357 212.544,66.359 	"/>
	<polygon points="196.886,41.672 208.835,50.692 214.772,41.544 	"/>
	<rect x="124.748" y="105.133" width="39.864" height="1.545"/>
	<path d="M181.495,120.582l-6.636,4.436v6.029c-1.403-2.605-4.351-5.561-10.102-5.561h-50.116V35.509h49.91
		c3.574,0,6.283,0.953,8.018,2.823c1.778,1.915,2.15,4.406,2.291,5.8v1.186c0,0.006,0,0.011,0,0.011v11.112l6.226-8.491
		l-2.508-12.594c-2.092,1.221-3.02,2.971-3.426,4.282c-1.354-2.786-4.29-5.532-10.601-5.532c-10.275,0-51.313,0-51.313,0v92.923
		c0,0,41.243,0,51.52,0c10.275,0,10.275,10.195,10.275,10.195s0.284-7.615,6.245-10.207c1.161-0.402,2.146-0.449,3.769-0.451
		L181.495,120.582z"/>
	<rect x="124.748" y="115.1" width="39.864" height="1.402"/>
	<polygon points="230.399,65.242 236.621,74.544 236.621,58.875 	"/>
	<path d="M216.77,41.022l6.126,9.295l13.726-11.022v-5.469c0,0-0.005,0-0.141,0c0,0-4.453,0-10.744,0L216.77,41.022z"/>
	<rect x="124.748" y="94.746" width="39.864" height="1.403"/>
	<polygon points="210.019,51.09 221.972,51.09 215.936,42.005 	"/>
	<rect x="124.748" y="44.354" width="39.864" height="1.403"/>
	<path d="M220.533,117.135l5.682,9.473c6.171,0,10.406,0,10.406,0v-6.83L220.533,117.135z"/>
	<rect x="124.748" y="54.459" width="39.864" height="1.404"/>
	<rect x="124.748" y="64.286" width="39.864" height="1.403"/>
	<rect x="124.748" y="84.639" width="39.864" height="1.403"/>
	<rect x="124.748" y="74.532" width="39.864" height="1.405"/>
	<path d="M195.19,40.208l4.211-6.383c-5.099,0-9.464,0-12.039,0c-0.861,0-1.62,0-2.26,0c-0.146,0-0.288,0.015-0.432,0.018
		L195.19,40.208z"/>
	<polygon points="174.859,61.618 191.133,61.618 181.702,49.194 174.859,58.521 	"/>
	<polygon points="174.859,69.165 174.859,79.795 181.1,75.124 	"/>
	<polygon points="236.621,105.354 236.621,92.971 230.308,99.222 	"/>
	<polygon points="180.182,102.725 174.859,101.486 174.859,106.271 	"/>
	<path d="M214.228,33.825l2.007,6.022l7.528-6.022C220.816,33.825,217.562,33.825,214.228,33.825z"/>
	<polygon points="192.94,60.349 207.721,51.396 195.824,42.414 	"/>
	<polygon points="191.696,60.321 194.621,42.127 182.444,48.155 	"/>
	<path d="M219.466,117.721l-3.541,8.887c3.129,0,6.14,0,8.853,0L219.466,117.721z"/>
	<path d="M218.459,116.893l-15.322,0.043l4.184,9.672c2.426,0,4.878,0,7.276,0L218.459,116.893z"/>
	<path d="M236.621,106.754c0,0.004-0.014,0.008-0.037,0.008c-0.153,0-0.293-0.059-0.411-0.174l-6.557-6.375l-9.307,15.609
		l16.312,2.707V106.754z"/>
	<polygon points="174.859,113.645 174.859,123.535 180.745,119.609 	"/>
	<path d="M202.189,117.863l-4.358,8.744c2.575,0,5.331,0,8.146,0L202.189,117.863z"/>
	<polygon points="190.889,106.312 181.779,103.129 174.859,107.752 174.859,111.889 181.628,118.764 	"/>
</g>
</svg>
