<?xml version="1.0" encoding="utf-8"?>
<!-- Generator: Adobe Illustrator 17.1.0, SVG Export Plug-In . SVG Version: 6.00 Build 0)  -->
<!DOCTYPE svg PUBLIC "-//W3C//DTD SVG 1.1//EN" "http://www.w3.org/Graphics/SVG/1.1/DTD/svg11.dtd">
<svg version="1.1" xmlns="http://www.w3.org/2000/svg" xmlns:xlink="http://www.w3.org/1999/xlink" x="0px" y="0px"
	 viewBox="0 0 238.11 155.91" enable-background="new 0 0 238.11 155.91" xml:space="preserve">
<g id="Layer_1">
	<rect x="-11.201" y="-11.5" width="260.5" height="178.5"/>
	<path fill="none" stroke="#FFFFFF" stroke-width="6" stroke-linecap="round" stroke-linejoin="round" stroke-miterlimit="10" d="
		M44.714,130"/>
	<path fill="none" stroke="#FFFFFF" stroke-width="6" stroke-linecap="round" stroke-linejoin="round" stroke-miterlimit="10" d="
		M210.38,96.333"/>
	<g>
		<linearGradient id="SVGID_1_" gradientUnits="userSpaceOnUse" x1="91.6922" y1="114.1489" x2="93.2932" y2="114.1489">
			<stop  offset="0" style="stop-color:#000000"/>
			<stop  offset="1" style="stop-color:#FFFFFF"/>
		</linearGradient>
		<path opacity="0.2" fill="url(#SVGID_1_)" d="M91.957,113.209c-0.081,0.063-0.176,0.11-0.265,0.165l1.601,1.716
			c-0.03-0.16-0.041-0.334-0.054-0.506L91.957,113.209z"/>
		<linearGradient id="SVGID_2_" gradientUnits="userSpaceOnUse" x1="138.9969" y1="103.9912" x2="143.4128" y2="103.9912">
			<stop  offset="0" style="stop-color:#000000"/>
			<stop  offset="1" style="stop-color:#FFFFFF"/>
		</linearGradient>
		<path opacity="0.2" fill="url(#SVGID_2_)" d="M138.997,97.257l4.141,13.468c0.091-0.053,0.18-0.111,0.275-0.148l-4.096-13.319
			C139.21,97.257,139.104,97.257,138.997,97.257z"/>
		<linearGradient id="SVGID_3_" gradientUnits="userSpaceOnUse" x1="103.3076" y1="104.0823" x2="110.7487" y2="104.0823">
			<stop  offset="0" style="stop-color:#000000"/>
			<stop  offset="1" style="stop-color:#FFFFFF"/>
		</linearGradient>
		<path opacity="0.2" fill="url(#SVGID_3_)" d="M103.308,110.461c0.057-0.003,0.113-0.018,0.17-0.018
			c0.064,0,0.119,0.014,0.181,0.017l7.09-12.757c-0.113,0-0.233,0-0.35,0L103.308,110.461z"/>
		<linearGradient id="SVGID_4_" gradientUnits="userSpaceOnUse" x1="-9.0351" y1="86.1608" x2="251.2944" y2="86.1608">
			<stop  offset="0" style="stop-color:#000000"/>
			<stop  offset="1" style="stop-color:#FFFFFF"/>
		</linearGradient>
		<path opacity="0.2" fill="url(#SVGID_4_)" d="M251.294-28.114l-12.046,6.559l-2.815-22.45h-0.308l2.822,22.505l-40.288-7.086
			l12.2-15.42h-0.39l-12.023,15.196l-4.267-15.196h-0.318l4.306,15.333l-0.15-0.027l0.089,0.115l-42.212,7.999l18.572-23.42h-0.391
			l-18.524,23.36l-11.173-23.36h-0.339l11.269,23.561L116.608-6.516l12.722-37.488h-0.323L116.354-6.72l-13.938-37.284h-0.327
			l14.016,37.492L74.758-20.455l6.785-23.549h-0.319L74.507-20.69l-17.95-23.314h-0.386l18.026,23.414l-38.58-8.002l5.625-15.412
			h-0.326l-5.59,15.316L12.302-39.554l0.035-0.197l-0.053,0.028v-4.281h-0.306v4.216l-5.15-4.216H6.344l5.514,4.513L-9.035-28.114
			v0.349L11.926-39.18L5.643-3.256L-9.035,5.157V5.51L5.752-2.966L30.25,23.386l-39.285-5.159v0.309l39.289,5.159L-9.035,52.612
			v0.38l39.381-28.984l-9.864,28.591l-29.517,5.11v0.311l29.354-5.082L5.739,81.02L-9.035,66.996v0.422L5.628,81.337v40.723
			L-9.035,81.603v0.899l14.57,40.202l-14.57-4.127v0.318l14.276,4.043l-14.276,4.39v0.32l14.605-4.492l-9.412,39.18l-5.193-3.339
			v0.364l5.055,3.251l-5.055,5.477v0.452l5.242-5.679l15.658,37.694l-20.899-6.541v0.321l21.013,6.576v15.413h0.306v-15.318
			l0.114,0.036l-0.031-0.076l33.416,2.031l-4.865,13.327h0.326l4.801-13.154l10.127,13.154h0.386l-10.318-13.401l43.97-17.794
			l-8.987,31.196h0.319l8.941-31.04l11.604,31.04h0.327l-11.72-31.35l44.518,13.06l-6.207,18.29h0.323l6.104-17.987l8.603,17.987
			h0.339l-8.681-18.149l0.133,0.039l-0.103-0.13h52.811l-14.463,18.239h0.391l14.323-18.062l5.072,18.062h0.318l-5.122-18.239h0.082
			l-0.034-0.051l43.283-9.415l-21.92,27.706h0.39l21.809-27.565l3.457,27.565h0.308l-3.459-27.585l18.321,14.996v-0.396
			l-17.812-14.579l17.812,5.574v-0.321l-18.244-5.709l18.244-19.765v-0.451l-18.449,19.987l-14.625-49.985l33.075,21.27v-0.364
			l-32.977-21.207l32.977-10.142v-0.32l-33.219,10.216l-5.741-29.685l38.96,11.034v-0.318l-38.917-11.022l30.677-47.788l8.24,22.735
			v-0.898l-7.837-21.623l7.837,7.439v-0.422l-7.998-7.591l7.998-1.385v-0.31l-8.382,1.451l8.382-6.169v-0.38l-8.896,6.548
			L232.97,16.13l18.324,2.406v-0.309l-18.05-2.37l18.05-10.347V5.157L232.98,15.656l6.27-36.791l0.053,0.009l-0.013-0.102
			l12.005-6.538V-28.114z M98.337,120.23l48.365,2.834l-39.247,39.211L98.337,120.23z M107.137,162.25l-54.892-35.877l45.781-6.136
			L107.137,162.25z M147.005,123.194l18.326,39.235h-57.596L147.005,123.194z M147.284,123.067l36.04-2.829l-17.759,41.968
			L147.284,123.067z M147.325,122.757l25.074-44.802l10.97,41.972L147.325,122.757z M183.529,120.539l10.948,41.89h-28.573h-0.101
			L183.529,120.539z M183.798,120.358l33.909,17.426l-22.954,24.491L183.798,120.358z M183.666,119.854l-10.955-41.916
			l39.126,29.671L183.666,119.854z M172.532,77.254l-0.029-0.111l-0.008,0.015l-16.733-56.624l50.291,23.648L172.532,77.254z
			 M155.882,20.253l30.259-13.66l19.824,37.207L155.882,20.253z M186.602,6.807l22.725,13.522l-3.099,23.314L186.602,6.807z
			 M209.629,20.38l22.715-4.195l-25.813,27.498L209.629,20.38z M209.608,20.072l-10.925-47.909L232.5,15.845L209.608,20.072z
			 M198.349-27.925l10.914,47.861L186.395,6.328L198.349-27.925z M155.671-20.23l42.476-8.048L186.126,6.168l-0.31-0.185l0.181,0.34
			l-30.326,13.689V-20.23z M172.224,77.32l-19.622-5.931v0.32l19.623,5.931l-23.089,41.256c-0.141,0.32-0.302,0.614-0.487,0.87
			l-1.556,2.779l-0.539-1.752c-0.114-0.007-0.228-0.013-0.33-0.033l0.617,2.006l-48.444-2.839l2.228-4.009
			c-0.053-0.122-0.097-0.25-0.138-0.383l-2.374,4.272l-1.788-1.917c-0.161-0.013-0.321-0.027-0.474-0.06l1.98,2.123l-45.861,6.147
			V70.798l34.827,37.329h0.419l-35.07-37.589l33.363-2.581V67.65l-33.38,2.582l30.938-44.026l25.282,21.121c0.16,0,0.322,0,0.478,0
			L83.423,26.105l71.811-5.68l-15.974,26.68c0.102,0,0.205,0,0.308,0l0.018,0.053l15.884-26.53L172.224,77.32z M6.099,122.801
			l45.565-51.985v0.077v55.218L6.099,122.801z M51.634,126.416l-7.844,40.129L6.139,123.111L51.634,126.416z M31.195,23.772
			l51.09,2.329L51.837,37.515L31.195,23.772z M51.664,37.768v31.931L31.01,24.017L51.664,37.768z M82.628,26.299L51.97,69.925
			V37.792L82.628,26.299z M155.365-20.139v40.1L116.696-6.222L155.365-20.139z M116.299-5.992l0.069,0.183l0.073-0.216
			l38.633,26.156L83.45,25.796L116.299-5.992z M116.074-6.199L83.136,25.673l-8.368-45.802L116.074-6.199z M82.853,25.82
			l-51.848-2.364l43.468-43.498L82.853,25.82z M35.55-28.294l38.712,8.029l-43.42,43.451L35.55-28.294z M12.247-39.241l22.887,10.8
			L6.005-3.552L12.247-39.241z M6.002-3.147l29.224-24.971L30.53,23.238L6.002-3.147z M30.67,24.007l20.814,46.038L20.784,52.664
			L30.67,24.007z M20.66,52.946L51.401,70.35L6.071,81.045L20.66,52.946z M5.934,81.392l45.452-10.724L5.934,122.525V81.392z
			 M5.86,123.257l37.655,43.438l-47.069-4.25L5.86,123.257z M12.181,200.522l-15.686-37.765l47.059,4.249L12.181,200.522z
			 M12.465,200.667l31.283-33.42l2.085,35.448L12.465,200.667z M46.137,202.637l-2.09-35.526l45.983,17.763L46.137,202.637z
			 M44.146,166.821l0.059-0.063l-0.143-0.013l7.833-40.072l38.159,57.882L44.146,166.821z M90.409,184.537l-38.058-57.73
			l54.773,35.799l-0.128,0.128h0.06L90.409,184.537z M90.702,184.658l16.666-21.827l27.623,34.819L90.702,184.658z M135.415,197.693
			l-27.733-34.957h57.558L135.415,197.693z M135.743,197.78l29.814-34.944l23.014,34.944H135.743z M188.767,197.522l-22.911-34.787
			h28.639L188.767,197.522z M189.042,197.736l5.745-34.893l37.605,25.463L189.042,197.736z M232.508,188.014l-37.598-25.458
			l22.977-24.515L232.508,188.014z M217.748,137.461l-33.827-17.384l28.103-12.216L217.748,137.461z M242.754,59.668l-30.656,47.755
			l-39.302-29.805L242.754,59.668z M172.962,77.259l33.316-32.872l0.127,0.24l0.036-0.273l35.681,15.159L172.962,77.259z
			 M242.086,59.165L206.578,44.08l26.109-27.814L242.086,59.165z M232.682,15.58l-33.939-43.839l40.205,7.071L232.682,15.58z"/>
		<linearGradient id="SVGID_5_" gradientUnits="userSpaceOnUse" x1="143.4141" y1="115.7996" x2="146.2312" y2="115.7996">
			<stop  offset="0" style="stop-color:#000000"/>
			<stop  offset="1" style="stop-color:#FFFFFF"/>
		</linearGradient>
		<path opacity="0.2" fill="url(#SVGID_5_)" d="M146.093,119.706c0.039,0.012,0.091,0.024,0.138,0.036l-2.521-8.197
			c-0.097,0.014-0.196,0.038-0.296,0.077l2.593,8.432L146.093,119.706z"/>
	</g>
	<g>
		<g>
			<rect x="91.75" y="53.011" fill="#FFFFFF" width="21.621" height="1.115"/>
			<rect x="91.75" y="58.361" fill="#FFFFFF" width="21.621" height="1.115"/>
			<rect x="91.75" y="63.711" fill="#FFFFFF" width="21.621" height="1.115"/>
			<rect x="91.75" y="69.283" fill="#FFFFFF" width="21.621" height="1.115"/>
			<rect x="91.75" y="74.633" fill="#FFFFFF" width="21.621" height="1.115"/>
			<rect x="91.75" y="79.983" fill="#FFFFFF" width="21.621" height="1.115"/>
			<rect x="91.75" y="85.555" fill="#FFFFFF" width="21.621" height="1.115"/>
			<rect x="91.75" y="90.905" fill="#FFFFFF" width="21.621" height="1.115"/>
			<polygon fill="#FFFFFF" points="119.055,83.223 122.511,84.026 125.554,79.537 119.055,79.537 			"/>
			<polygon fill="#FFFFFF" points="119.055,78.868 126.007,78.868 126.036,78.825 122.691,70.15 119.055,72.873 			"/>
			<polygon fill="#FFFFFF" points="128.225,62.931 123.386,69.449 133.3,72.819 128.244,62.931 			"/>
			<polygon fill="#FFFFFF" points="138.026,57.247 139.528,63.443 144.083,57.247 			"/>
			<polygon fill="#FFFFFF" points="130.905,51.445 137.387,56.338 140.606,51.377 			"/>
			<polygon fill="#FFFFFF" points="137.32,57.175 128.803,62.334 138.942,63.865 			"/>
			<polygon fill="#FFFFFF" points="139.386,83.442 134.401,91.608 142.6,91.575 			"/>
			<polygon fill="#FFFFFF" points="142.742,73.636 134.57,73.734 139.394,81.939 			"/>
			<polygon fill="#FFFFFF" points="138.695,83.286 128.813,86.484 133.736,91.405 			"/>
			<polygon fill="#FFFFFF" points="128.23,86.847 123.421,93.302 133.106,91.72 			"/>
			<polygon fill="#FFFFFF" points="127.723,85.817 126.257,79.691 123.179,84.231 			"/>
			<polygon fill="#FFFFFF" points="148.75,63.645 152.602,59.704 152.602,58.521 145.402,57.066 			"/>
			<polygon fill="#FFFFFF" points="152.602,57.838 152.602,50.925 145.715,56.447 			"/>
			<path fill="#FFFFFF" d="M140.759,50.675l-1.19-3.57c-2.158,0-4.362,0-6.422,0l-2.415,3.647L140.759,50.675z"/>
			<polygon fill="#FFFFFF" points="138.806,64.521 129.055,63.049 134.002,72.724 			"/>
			<path fill="#FFFFFF" d="M123.197,94.016l1.929,3.241c1.294,0,3.303,0,5.656,0l2.43-4.877L123.197,94.016z"/>
			<polygon fill="#FFFFFF" points="119.055,65.537 122.802,69.114 127.393,62.931 119.055,62.931 			"/>
			<path fill="#FFFFFF" d="M129.394,51.088l-6.378-3.853c-0.551,0.096-1.024,0.242-1.432,0.421l1.318,6.645L129.394,51.088z"/>
			<polygon fill="#FFFFFF" points="138.007,82.81 126.947,79.7 128.432,85.906 			"/>
			<polygon fill="#FFFFFF" points="139.398,64.834 134.577,73.066 142.743,72.967 			"/>
			<polygon fill="#FFFFFF" points="133.259,73.512 123.414,70.164 126.565,78.339 			"/>
			<polygon fill="#FFFFFF" points="140.027,64.604 143.296,72.553 148.033,64.495 			"/>
			<polygon fill="#FFFFFF" points="133.883,73.886 126.83,78.973 138.864,82.356 			"/>
			<polygon fill="#FFFFFF" points="148,82.994 139.941,83.027 143.152,91.151 			"/>
			<polygon fill="#FFFFFF" points="152.602,86.088 152.602,79.155 149.067,82.655 			"/>
			<path fill="#FFFFFF" d="M152.22,86.649l-3.56-3.457l-5.032,8.465l8.973,1.486v-6.436c-0.047,0.023-0.097,0.037-0.149,0.037
				C152.369,86.744,152.285,86.713,152.22,86.649z"/>
			<path fill="#FFFFFF" d="M141.32,97.257c1.615,0,3.17,0,4.579,0l-2.747-4.597L141.32,97.257z"/>
			<path fill="#FFFFFF" d="M131.53,97.257c1.331,0,2.755,0,4.21,0l-1.957-4.52L131.53,97.257z"/>
			<path fill="#FFFFFF" d="M134.296,92.241l2.172,5.016c1.376,0,2.77,0,4.131,0l2.005-5.033L134.296,92.241z"/>
			<path fill="#FFFFFF" d="M119.055,96.74v2.892c-0.002,0.004-0.005,0.009-0.007,0.013c-0.835-1.423-2.455-2.945-5.566-2.945H86.512
				v-48.37h26.86c1.894,0,3.343,0.502,4.308,1.494c1.253,1.287,1.367,3.073,1.376,3.482v6.007l3.279-4.444
				c-0.001-0.003-0.002-0.006-0.003-0.01l-1.365-6.879c-1.056,0.66-1.529,1.565-1.74,2.252c-0.836-1.475-2.51-2.905-5.855-2.905
				c-5.573,0-27.863,0-27.863,0v50.376c0,0,22.402,0,27.974,0s5.573,5.545,5.573,5.545s0.21-5.632,5.303-5.974l-1.796-3.017
				L119.055,96.74z"/>
			<polygon fill="#FFFFFF" points="127.654,86.501 122.706,84.774 119.055,87.208 119.055,89.638 122.623,93.253 			"/>
			<path fill="#FFFFFF" d="M146.678,97.257c3.354,0,5.701,0,5.701,0c0.145,0,0.223,0,0.223,0v-3.436l-8.853-1.466L146.678,97.257z"
				/>
			<path fill="#FFFFFF" d="M132.345,47.105c-3.312,0-6.166,0-7.717,0c-0.177,0-0.347,0.005-0.513,0.013l5.872,3.547L132.345,47.105z
				"/>
			<polygon fill="#FFFFFF" points="152.602,69.439 152.602,60.661 149.117,64.227 			"/>
			<path fill="#FFFFFF" d="M146.691,47.105l-5.002,4.002l3.34,5.034l7.573-6.073v-2.963
				C152.602,47.105,150.161,47.105,146.691,47.105z"/>
			<polygon fill="#FFFFFF" points="128.092,61.572 129.68,51.692 123.061,54.969 			"/>
			<polygon fill="#FFFFFF" points="144.812,57.38 139.994,63.935 148.092,63.825 			"/>
			<polygon fill="#FFFFFF" points="138.028,56.578 144.51,56.578 141.237,51.651 			"/>
			<polygon fill="#FFFFFF" points="148.664,82.113 152.602,78.214 152.602,75.07 143.881,73.744 			"/>
			<path fill="#FFFFFF" d="M145.621,47.105c-1.646,0-3.471,0-5.347,0l1.126,3.377L145.621,47.105z"/>
			<polygon fill="#FFFFFF" points="119.055,95.921 122.153,93.729 119.055,90.59 			"/>
			<polygon fill="#FFFFFF" points="143.778,73.052 152.602,74.393 152.602,70.642 148.66,64.748 			"/>
			<polygon fill="#FFFFFF" points="119.055,72.037 122.328,69.587 119.055,66.462 			"/>
			<polygon fill="#FFFFFF" points="119.055,86.404 121.83,84.554 119.055,83.909 			"/>
			<polygon fill="#FFFFFF" points="128.767,61.574 136.782,56.719 130.331,51.848 			"/>
			<polygon fill="#FFFFFF" points="143.292,74.061 139.947,82.358 148.015,82.325 			"/>
			<polygon fill="#FFFFFF" points="119.055,60.432 119.055,62.262 127.787,62.262 122.663,55.525 			"/>
		</g>
		<g>
			<path fill="#FFFFFF" d="M92.407,111.336c0,2.145-1.553,3.026-3.606,3.026h-1.174v3.433h-1.283v-9.349h2.444
				C91.029,108.446,92.407,109.369,92.407,111.336z M91.043,111.35c0-1.398-0.891-1.9-2.269-1.9h-1.148v3.895h1.121
				C90.124,113.345,91.043,112.937,91.043,111.35z"/>
			<path fill="#FFFFFF" d="M98.878,114.648H94.34c0.121,1.655,0.891,2.292,1.917,2.292c0.702,0,1.229-0.19,1.85-0.624l0.54,0.746
				c-0.701,0.557-1.498,0.896-2.485,0.896c-1.985,0-3.147-1.397-3.147-3.664c0-2.225,1.121-3.812,2.958-3.812
				c1.917,0,2.931,1.342,2.931,3.528C98.904,114.253,98.891,114.485,98.878,114.648z M97.675,113.643
				c0-1.397-0.553-2.171-1.674-2.171c-0.946,0-1.568,0.666-1.661,2.253h3.335V113.643z"/>
			<path fill="#FFFFFF" d="M105.811,114.648h-4.538c0.121,1.655,0.891,2.292,1.917,2.292c0.702,0,1.229-0.19,1.851-0.624l0.54,0.746
				c-0.703,0.557-1.499,0.896-2.485,0.896c-1.986,0-3.148-1.397-3.148-3.664c0-2.225,1.121-3.812,2.958-3.812
				c1.918,0,2.931,1.342,2.931,3.528C105.838,114.253,105.824,114.485,105.811,114.648z M104.609,113.643
				c0-1.397-0.555-2.171-1.676-2.171c-0.945,0-1.566,0.666-1.66,2.253h3.336V113.643z"/>
			<path fill="#FFFFFF" d="M111.028,110.562l-0.229,1.222c-0.216-0.055-0.365-0.082-0.622-0.082c-0.891,0-1.405,0.637-1.701,2.008
				v4.084h-1.243v-7.151h1.066l0.122,1.453c0.378-1.072,1.04-1.615,1.904-1.615C110.555,110.482,110.812,110.508,111.028,110.562z"
				/>
			<path fill="#FFFFFF" d="M117.999,116.669l-0.149,1.126h-4.957v-9.349h1.283v8.223H117.999z"/>
			<path fill="#FFFFFF" d="M120.764,108.066c0,0.475-0.351,0.841-0.878,0.841c-0.513,0-0.864-0.366-0.864-0.841
				c0-0.488,0.352-0.855,0.864-0.855C120.413,107.211,120.764,107.578,120.764,108.066z M119.279,117.795v-7.151h1.243v7.151
				H119.279z"/>
			<path fill="#FFFFFF" d="M128.196,114.214c0,2.238-1.067,3.745-2.796,3.745c-0.783,0-1.405-0.353-1.891-0.95l-0.121,0.787h-1.094
				v-10.028l1.243-0.149v3.921c0.486-0.665,1.148-1.058,2.012-1.058C127.156,110.482,128.196,111.824,128.196,114.214z
				 M126.858,114.214c0-2.036-0.662-2.742-1.66-2.742c-0.784,0-1.297,0.543-1.661,1.113v3.42c0.365,0.57,0.932,0.963,1.567,0.963
				C126.143,116.968,126.858,116.167,126.858,114.214z"/>
			<path fill="#FFFFFF" d="M133.315,110.562l-0.229,1.222c-0.216-0.055-0.365-0.082-0.622-0.082c-0.891,0-1.405,0.637-1.701,2.008
				v4.084h-1.243v-7.151h1.066l0.122,1.453c0.378-1.072,1.04-1.615,1.904-1.615C132.842,110.482,133.098,110.508,133.315,110.562z"
				/>
			<path fill="#FFFFFF" d="M139.839,117.09l-0.283,0.868c-0.716-0.082-1.174-0.367-1.39-1.072c-0.5,0.746-1.257,1.072-2.121,1.072
				c-1.418,0-2.269-0.883-2.269-2.158c0-1.533,1.149-2.361,3.133-2.361h1.094v-0.529c0-1.032-0.499-1.412-1.485-1.412
				c-0.527,0-1.189,0.136-1.917,0.38l-0.311-0.909c0.878-0.326,1.66-0.488,2.458-0.488c1.716,0,2.499,0.882,2.499,2.374v3.271
				C139.246,116.751,139.475,116.954,139.839,117.09z M138.002,115.91v-1.642h-0.932c-1.31,0-1.971,0.488-1.971,1.465
				c0,0.842,0.418,1.289,1.229,1.289C137.058,117.022,137.598,116.656,138.002,115.91z"/>
			<path fill="#FFFFFF" d="M144.884,110.562l-0.229,1.222c-0.216-0.055-0.365-0.082-0.622-0.082c-0.891,0-1.405,0.637-1.701,2.008
				v4.084h-1.243v-7.151h1.067l0.121,1.453c0.378-1.072,1.04-1.615,1.904-1.615C144.411,110.482,144.668,110.508,144.884,110.562z"
				/>
			<path fill="#FFFFFF" d="M146.227,120.686l-0.135-0.978c1.444-0.245,1.85-0.8,2.256-1.913h-0.419l-2.39-7.151h1.323l1.904,6.242
				l1.864-6.242h1.283l-2.377,7.192C149.036,119.356,148.199,120.469,146.227,120.686z"/>
		</g>
	</g>
</g>
<g id="Layer_2">
</g>
</svg>
